# xmcd CD database file
#
# Track frame offsets:
#	150
#	21972
#	44800
#	65200
#	86367
#	107585
#	130850
#	148080
#	173002
#	197440
#	220545
#	243837
#	264415
#	289637
#	307575
#	328675
#
# Disc length: 4658 seconds
#
# Revision: 3
# Processed by: cddbd v1.5.2PL0 Copyright (c) Steve Scherf et al.
# Submitted via: CDex 1.70beta2
#
DISCID=de123010
DTITLE=槇原敬之 - "SMILING" ～THE BEST OF NORIYUKI MAKIHARA～
DYEAR=1997
DGENRE=JPop
TTITLE0=No.1
TTITLE1=どんなときも。
TTITLE2=もう恋なんてしない
TTITLE3=2つの願い
TTITLE4=NG
TTITLE5=MILK
TTITLE6=冬がはじまるよ
TTITLE7=北風 ～君にとどきますように～
TTITLE8=彼女の恋人
TTITLE9=ANSWER
TTITLE10=僕の彼女はウェイトレス
TTITLE11=SPY
TTITLE12=ズル休み
TTITLE13=どうしようもない僕に天使が降りてきた
TTITLE14=雪に願いを
TTITLE15=遠く遠く
EXTD=YEAR: 1997
EXTT0=
EXTT1=
EXTT2=
EXTT3=
EXTT4=
EXTT5=
EXTT6=
EXTT7=
EXTT8=
EXTT9=
EXTT10=
EXTT11=
EXTT12=
EXTT13=
EXTT14=
EXTT15=
PLAYORDER=
